<svg id="visual" viewBox="0 0 900 600" width="900" height="600" xmlns="http://www.w3.org/2000/svg" xmlns:xlink="http://www.w3.org/1999/xlink" version="1.1"><rect x="0" y="0" width="900" height="600" fill="#001220"></rect><path d="M378 0L381 9.2C384 18.3 390 36.7 391.5 54.8C393 73 390 91 391.7 109.2C393.3 127.3 399.7 145.7 399.5 163.8C399.3 182 392.7 200 390.2 218.2C387.7 236.3 389.3 254.7 380 272.8C370.7 291 350.3 309 347.2 327.2C344 345.3 358 363.7 370.3 381.8C382.7 400 393.3 418 389.2 436.2C385 454.3 366 472.7 360.7 490.8C355.3 509 363.7 527 359.5 545.2C355.3 563.3 338.7 581.7 330.3 590.8L322 600L0 600L0 590.8C0 581.7 0 563.3 0 545.2C0 527 0 509 0 490.8C0 472.7 0 454.3 0 436.2C0 418 0 400 0 381.8C0 363.7 0 345.3 0 327.2C0 309 0 291 0 272.8C0 254.7 0 236.3 0 218.2C0 200 0 182 0 163.8C0 145.7 0 127.3 0 109.2C0 91 0 73 0 54.8C0 36.7 0 18.3 0 9.2L0 0Z" fill="#6cedff"></path><path d="M307 0L306.2 9.2C305.3 18.3 303.7 36.7 290.2 54.8C276.7 73 251.3 91 244.3 109.2C237.3 127.3 248.7 145.7 259.7 163.8C270.7 182 281.3 200 280.8 218.2C280.3 236.3 268.7 254.7 267.7 272.8C266.7 291 276.3 309 278.2 327.2C280 345.3 274 363.7 275 381.8C276 400 284 418 287.3 436.2C290.7 454.3 289.3 472.7 277.7 490.8C266 509 244 527 248.2 545.2C252.3 563.3 282.7 581.7 297.8 590.8L313 600L0 600L0 590.8C0 581.7 0 563.3 0 545.2C0 527 0 509 0 490.8C0 472.7 0 454.3 0 436.2C0 418 0 400 0 381.8C0 363.7 0 345.3 0 327.2C0 309 0 291 0 272.8C0 254.7 0 236.3 0 218.2C0 200 0 182 0 163.8C0 145.7 0 127.3 0 109.2C0 91 0 73 0 54.8C0 36.7 0 18.3 0 9.2L0 0Z" fill="#00baff"></path><path d="M212 0L214.8 9.2C217.7 18.3 223.3 36.7 223.8 54.8C224.3 73 219.7 91 215.5 109.2C211.3 127.3 207.7 145.7 194.3 163.8C181 182 158 200 153.3 218.2C148.7 236.3 162.3 254.7 164.5 272.8C166.7 291 157.3 309 155.2 327.2C153 345.3 158 363.7 164 381.8C170 400 177 418 176.8 436.2C176.7 454.3 169.3 472.7 160.2 490.8C151 509 140 527 145.7 545.2C151.3 563.3 173.7 581.7 184.8 590.8L196 600L0 600L0 590.8C0 581.7 0 563.3 0 545.2C0 527 0 509 0 490.8C0 472.7 0 454.3 0 436.2C0 418 0 400 0 381.8C0 363.7 0 345.3 0 327.2C0 309 0 291 0 272.8C0 254.7 0 236.3 0 218.2C0 200 0 182 0 163.8C0 145.7 0 127.3 0 109.2C0 91 0 73 0 54.8C0 36.7 0 18.3 0 9.2L0 0Z" fill="#007df0"></path><path d="M125 0L126.5 9.2C128 18.3 131 36.7 130 54.8C129 73 124 91 121.7 109.2C119.3 127.3 119.7 145.7 107.5 163.8C95.3 182 70.7 200 65.7 218.2C60.7 236.3 75.3 254.7 84.7 272.8C94 291 98 309 99 327.2C100 345.3 98 363.7 100.8 381.8C103.7 400 111.3 418 119.3 436.2C127.3 454.3 135.7 472.7 131.8 490.8C128 509 112 527 109.3 545.2C106.7 563.3 117.3 581.7 122.7 590.8L128 600L0 600L0 590.8C0 581.7 0 563.3 0 545.2C0 527 0 509 0 490.8C0 472.7 0 454.3 0 436.2C0 418 0 400 0 381.8C0 363.7 0 345.3 0 327.2C0 309 0 291 0 272.8C0 254.7 0 236.3 0 218.2C0 200 0 182 0 163.8C0 145.7 0 127.3 0 109.2C0 91 0 73 0 54.8C0 36.7 0 18.3 0 9.2L0 0Z" fill="#2433c7"></path></svg>